<?xml version="1.0" standalone="no"?>
<!DOCTYPE svg PUBLIC "-//W3C//DTD SVG 20010904//EN"
 "http://www.w3.org/TR/2001/REC-SVG-20010904/DTD/svg10.dtd">
<svg version="1.0" xmlns="http://www.w3.org/2000/svg"
 width="50.000000pt" height="50.000000pt" viewBox="0 0 50.000000 50.000000"
 preserveAspectRatio="xMidYMid meet">

<g transform="translate(0.000000,50.000000) scale(0.100000,-0.100000)"
fill="#000000" stroke="none">
<path d="M103 390 c-36 -22 -53 -48 -53 -82 0 -35 29 -71 51 -65 15 4 19 0 19
-23 0 -39 43 -87 91 -101 76 -23 169 33 169 101 0 23 4 27 19 23 12 -3 24 3
35 18 32 47 13 104 -44 134 -43 22 -52 18 -25 -10 18 -17 25 -35 25 -62 0 -26
-3 -34 -9 -24 -5 8 -7 19 -5 25 2 6 -10 26 -26 45 -25 29 -31 32 -45 21 -9 -7
-33 -13 -55 -13 -22 0 -46 6 -55 13 -14 11 -20 8 -45 -21 -16 -19 -28 -39 -26
-45 2 -6 0 -17 -5 -25 -6 -10 -9 -2 -9 24 0 27 7 45 25 62 29 30 12 32 -32 5z
m97 -30 c0 -7 7 -7 21 0 14 8 29 8 50 1 18 -6 29 -6 29 0 0 15 36 10 51 -7 22
-26 23 -96 2 -112 -16 -13 -16 -14 0 -9 28 10 21 -38 -12 -72 -51 -52 -131
-52 -182 0 -33 34 -40 82 -11 72 15 -5 15 -4 -1 9 -21 16 -20 86 2 112 15 18
51 22 51 6z m-120 -47 c0 -21 -3 -24 -9 -14 -5 8 -7 20 -4 28 8 21 13 15 13
-14z m353 14 c3 -8 1 -20 -4 -28 -6 -10 -9 -7 -9 14 0 29 5 35 13 14z"/>
<path d="M146 342 c-2 -4 7 -8 22 -7 19 0 28 -6 33 -25 6 -21 7 -22 8 -4 1 11
-4 25 -11 32 -14 14 -44 16 -52 4z"/>
<path d="M302 338 c-7 -7 -12 -21 -11 -32 1 -18 2 -17 8 4 5 19 14 25 33 25
15 -1 24 3 22 7 -8 12 -38 10 -52 -4z"/>
<path d="M171 284 c0 -11 3 -14 6 -6 3 7 2 16 -1 19 -3 4 -6 -2 -5 -13z"/>
<path d="M206 269 c-35 -41 -42 -74 -22 -104 43 -66 161 -25 142 49 -8 34 -54
86 -76 86 -10 0 -30 -14 -44 -31z m69 -99 c0 -18 -33 -26 -47 -12 -6 6 -7 15
-3 22 10 16 50 8 50 -10z"/>
<path d="M321 284 c0 -11 3 -14 6 -6 3 7 2 16 -1 19 -3 4 -6 -2 -5 -13z"/>
</g>
</svg>
